<svg id="Layer_1" data-name="Layer 1" xmlns="http://www.w3.org/2000/svg" viewBox="0 0 340.16 340.16"><defs><style>.cls-1{fill:#fff;}</style></defs><path class="cls-1" d="M223.12,198.61c-2.37,0-3.68,2.08-3.68,4.56s1.31,4.61,3.68,4.61v0c2.38,0,3.7-2,3.7-4.63C226.82,200.69,225.49,198.61,223.12,198.61Z"/><path class="cls-1" d="M171.1,143h-1.55v12.81h1.54c5.82,0,6.94-2.65,6.94-6.38C178,146,177,143,171.1,143Z"/><polygon class="cls-1" points="79.69 163.59 85.8 163.59 82.57 150.96 79.69 163.59"/><polygon class="cls-1" points="131.89 160.21 139.55 160.21 135.93 144.65 131.89 160.21"/><path class="cls-1" d="M190.61,193H187.4v14.19h3c4.34,0,6.38-3,6.38-7.25S194.68,193,190.61,193Z"/><path class="cls-1" d="M267.7,198.61c-2.37,0-3.69,2-3.69,4.54s1.32,4.56,3.69,4.56v0c2.37,0,3.69-2.11,3.69-4.58S270.07,198.61,267.7,198.61Z"/><path class="cls-1" d="M0,0V340.16H340.16V0ZM238,128.78c0-4.75,2.74-6.23,7-6.23s7,1.48,7,6.23V165.3H261c4.32,0,5.62,2.53,5.62,6.34S265.26,178,261,178H244.44c-4.59,0-6.4-2.38-6.4-6.47h0ZM55.18,170.28A6,6,0,0,0,59,168.86c2-1.53,3.67-1.36,5.17.6s1.08,3.85-.67,5.58a13.29,13.29,0,0,1-9,3.33C47,178.37,42,172.22,42,163.29c0-9.09,5.65-15,13.15-15a12.09,12.09,0,0,1,8.6,3.08c1.7,1.6,2.08,3.38.81,5.35-1.14,1.77-3.3,2.63-5,1.21a5.86,5.86,0,0,0-4.12-1.81c-3,0-5,2.78-5,7.2C50.44,167.51,52.31,170.28,55.18,170.28Zm38.28,8.05c-3.14,0-4.24-.86-5-3.8l-1-3.15H77.53l-.89,3.08c-1,2.95-2.07,3.9-4.94,3.9s-5-1.62-4.14-4.87c.83-2.94,7.73-22.71,7.73-22.71,1.75-4.85,3.51-5.85,7.49-5.85s5.81,1,7.47,5.85h0s6.82,19.85,7.57,22.66C98.7,176.64,96.44,178.33,93.46,178.33Zm23-26.73h-3.83v22.23c0,3.45-2.13,4.52-5.18,4.52s-5.18-1.07-5.18-4.52V151.6H98.37c-3.06,0-4-1.91-4-4.62s.91-4.62,4-4.62H116.5c3.08,0,4,2,4,4.65s-.91,4.59-4,4.59ZM149,178.37c-3.53,0-5.33-.85-6.32-4.76l-1-3.75H129.84l-1.28,3.67c-1.34,3.79-2.46,4.83-6.21,4.83s-6.21-2-5-6.08c1-3.7,9.65-28,9.65-28,2.26-6.17,4.15-7.37,9.24-7.37s7,1.07,9.23,7.36c0,0,8,24.47,8.93,28C155.44,176.26,152.75,178.37,149,178.37Zm20.58-12.85v7.2c0,4.18-2.24,5.64-6.14,5.64-3.61,0-6.17-1.46-6.17-5.64V139.18c0-3.83,1.8-5.93,6.14-5.93h8.14c13.54,0,18.85,6.23,18.85,16.22h0c0,10-6.17,16.05-16.54,16.05Zm21.73,46.83h-6.89a2.68,2.68,0,0,1-2.59-2.77V190.37a2.7,2.7,0,0,1,2.8-2.57h6.67c7.31,0,11.42,5.79,11.47,12.12C202.77,207.94,197.38,212.35,191.31,212.35Zm19.78-15.78v13.18a2.7,2.7,0,0,1-5.39.25V196.57a2.7,2.7,0,0,1,5.39-.26Zm.51-7.56a3.21,3.21,0,1,1-3.22-3.2h0A3.2,3.2,0,0,1,211.6,189Zm20.6,21.53c0,6.87-4.49,9.46-9.76,9.46-2.8,0-8-1.08-8-4a2.47,2.47,0,0,1,2.23-2.34c1.56,0,2.56,1.58,5.7,1.58,3.34,0,4.48-1.75,4.48-4.74h-.08a5.67,5.67,0,0,1-4.89,2.07c-5.21,0-7.8-4.56-7.8-9.38,0-5.41,3.63-9.74,8.33-9.74A5.36,5.36,0,0,1,227,195.5a2.77,2.77,0,0,1,2.52-1.71v0h.12a2.66,2.66,0,0,1,2.57,2.75Zm1.23-52.78c0,12.81-5.63,21.23-19.91,21.23s-19.85-8.36-19.85-21.17V134.2c0-4.45,2.58-5.92,6.42-5.92s6.45,1.51,6.45,5.89v23.46c0,6.59,2.37,10.08,7,10.08s7-3.49,7-10.1V131.15c0-4.47,2.59-5.9,6.46-5.9s6.44,1.52,6.44,5.9h0Zm7.46,52a2.69,2.69,0,0,1-5.38,0V196.57a2.69,2.69,0,0,1,5.38,0Zm-2.66-17.55a3.21,3.21,0,1,1,0-6.42h0a3.21,3.21,0,0,1,3.19,3.22h0l0,0A3.21,3.21,0,0,1,238.23,192.2ZM257,196.49h0c0,1.72-1.11,2.47-2.83,2.47H252.7v10.8a2.69,2.69,0,0,1-5.38,0V199h-.6c-1.74,0-2.85-.75-2.85-2.49S245,194,246.72,194h.6V190.5a2.69,2.69,0,0,1,5.38,0V194h1.48c1.72,0,2.83.73,2.83,2.46v0Zm17.07,16a2.76,2.76,0,0,1-2.52-1.74,5.36,5.36,0,0,1-4.62,2.1c-4.7,0-8.32-4.35-8.32-9.75s3.63-9.72,8.32-9.72a5.38,5.38,0,0,1,4.62,2.08,2.75,2.75,0,0,1,2.52-1.72v0h.16a2.66,2.66,0,0,1,2.53,2.78v13.29A2.66,2.66,0,0,1,274.08,212.54Zm11.39-2.79a2.69,2.69,0,0,1-5.38,0V188.59a2.69,2.69,0,0,1,5.38,0Zm6.84-76.13h-6.84v38.07c0,4.93-3,6.67-7.39,6.67s-7.39-1.67-7.39-6.67V133.62h-6.84c-4.68,0-6-2.6-6-6.79s1.38-6.8,6-6.8H292.3c4.66,0,6,2.7,6,6.8h0C298.35,131,297,133.62,292.31,133.62Z"/></svg>